<svg viewBox="0 0 16 17" xmlns="http://www.w3.org/2000/svg" fill="none">
  <style>
    path {
      stroke: #FCD549;
      stroke-width: 1.58333;
      fill: none;
    }
    path:nth-child(2) {
      stroke-linecap: round;
    }
  </style>
  <path d="M14.3346 8.09644V12.0548C14.3346 13.5476 14.3346 14.2939 13.8709 14.7577C13.4071 15.2214 12.6607 15.2214 11.168 15.2214H3.64714C2.55407 15.2214 1.66797 14.3353 1.66797 13.2423V13.2423C1.66797 12.1492 2.55407 11.2631 3.64714 11.2631H11.168C12.6607 11.2631 13.4071 11.2631 13.8709 10.7994C14.3346 10.3356 14.3346 9.58922 14.3346 8.09644V4.1381C14.3346 2.64532 14.3346 1.89893 13.8709 1.43518C13.4071 0.971436 12.6607 0.971436 11.168 0.971436H4.83464C3.34186 0.971436 2.59546 0.971436 2.13172 1.43518C1.66797 1.89893 1.66797 2.64532 1.66797 4.1381V13.2423"/>
  <path d="M5.62598 6.51302L6.64952 7.53656C6.95868 7.84573 7.45994 7.84573 7.7691 7.53656L10.376 4.92969"/>
</svg> 