<svg viewBox="0 0 16 14" fill="none" xmlns="http://www.w3.org/2000/svg" id="map">
<path fill-rule="evenodd" clip-rule="evenodd" d="M3.83431 1.89747C3.83431 1.30792 3.23887 0.904783 2.69148 1.12374L1.02482 1.79041C0.708436 1.91696 0.500977 2.22338 0.500977 2.56414V12.4357C0.500977 13.0253 1.09642 13.4284 1.6438 13.2095L3.31047 12.5428C3.62685 12.4163 3.83431 12.1098 3.83431 11.7691V1.89747ZM5.50098 11.5576C5.50098 11.94 5.76122 12.2733 6.1322 12.3661L9.46553 13.1994C9.99149 13.3309 10.501 12.9331 10.501 12.391V2.44226C10.501 2.05987 10.2407 1.72655 9.86976 1.6338L6.53642 0.80047C6.01047 0.668981 5.50098 1.06678 5.50098 1.60892V11.5576ZM12.6915 1.45707C12.3751 1.58362 12.1676 1.89005 12.1676 2.2308V12.1024C12.1676 12.692 12.7631 13.0951 13.3105 12.8761L14.9771 12.2095C15.2935 12.0829 15.501 11.7765 15.501 11.4357V1.56414C15.501 0.974583 14.9055 0.57145 14.3582 0.790405L12.6915 1.45707Z" fill="currentColor"/>
</svg>