<svg viewBox="0 0 52 52" fill="none" xmlns="http://www.w3.org/2000/svg" id="skill-tree">
<path d="M21.4132 44.715C21.2028 41.6012 24.8146 39.5977 26.89 38.9688L23.4515 38.7123C21.7859 38.1731 18.598 37.7694 19.1713 40.4677C19.7446 43.1659 19.4999 45.3331 19.5656 46.3061C20.1389 49.0043 21.1457 47.9914 21.5775 47.1477C21.8878 45.9537 21.5973 45.0284 21.4132 44.715Z" fill="currentColor"/>
<path d="M16.4164 43.0974C16.2849 41.1513 17.1594 39.626 17.6131 39.1066L15.6013 38.2651C14.7356 37.509 13.6144 36.3465 14.1088 37.8771C14.6032 39.4077 14.3388 41.2828 14.4703 43.2289C14.628 45.5642 14.8187 45.9749 15.6076 45.5958C16.3861 45.5432 16.515 44.557 16.4164 43.0974Z" fill="currentColor"/>
<path fill-rule="evenodd" clip-rule="evenodd" d="M12.3143 16.759V18.5694L8.09021 19.1728L7.48672 14.3452C9.41776 13.3798 10.3028 11.5291 10.504 10.7244C11.9522 6.86238 9.49822 5.09226 8.09017 4.68996C6.15914 4.2072 6.07868 3.68421 6.27983 3.48306C1.45224 3.96582 0.245368 7.3049 0.24538 8.9141C-0.237379 12.2934 2.86032 14.3451 4.46952 14.9486C4.26837 15.9543 3.98676 18.0865 4.46952 18.5693C4.95228 19.052 5.07297 20.7819 5.07297 21.5865C5.55572 22.552 7.28561 22.3911 8.09021 22.19L12.3143 21.5865L13.5212 34.2589H10.504C7.60745 34.2589 6.88331 34.6612 6.88331 34.8624C5.91779 34.8624 6.48101 39.69 6.88331 42.1038L4.46952 43.9141L3.26262 46.9314C3.26262 50.7934 5.67641 51.759 6.88331 51.759C12.6764 52.2417 13.5212 49.9486 13.5212 46.9314C13.5212 43.9141 10.504 42.7072 8.69366 42.1038V36.6727C9.17641 37.1555 10.504 36.8739 11.1074 36.6727C12.5557 36.19 13.7224 36.4716 14.1247 36.6727V37.2762L15.3316 40.2934C16.7799 40.2934 30.4178 39.0865 37.0557 38.4831L38.8661 37.8796C39.3488 37.3969 39.0672 34.0578 38.8661 32.4486H44.2971C44.2971 33.4141 44.6994 35.2647 44.9006 36.0693V39.69C41.5212 40.6555 41.0787 43.3107 41.2799 44.5176C42.2454 47.8969 44.4983 49.144 45.504 49.3452C48.8833 50.3107 50.5327 47.3337 50.935 45.7245C51.9006 41.3796 48.5212 39.8911 46.7109 39.69V27.621H46.1074C46.5902 26.6555 45.9063 19.575 45.504 16.1555C45.504 14.2244 45.9063 13.3394 46.1074 13.1382C45.6247 13.1382 45.504 12.3336 45.504 11.9313C45.504 10.9658 46.7109 10.7244 47.3143 10.7244C47.3143 10.2417 48.5212 8.9141 49.1247 8.31065L48.5212 8.9141C49.004 6.50031 48.3201 3.48306 47.9178 2.27617C47.435 1.31065 46.1074 1.06927 45.504 1.06927H42.4868C43.935 1.06927 43.4925 0.66697 43.0902 0.46582H42.4868L41.8833 1.06927L38.8661 2.87961V3.48306C38.3833 3.96582 38.6649 5.29341 38.8661 5.89686L38.2626 5.29341V5.89686C37.2971 9.27617 40.2741 11.3279 41.8833 11.9313C41.8833 15.7934 43.0902 24.4026 43.6937 28.2245L43.0902 27.621C43.0902 28.1038 43.4925 29.0291 43.6937 29.4314L39.4695 30.0348C38.9868 28.5865 38.8661 23.3969 38.8661 20.9831C38.8661 15.6727 37.6592 13.1382 37.0557 12.5348H35.8488C33.9178 12.5348 33.8373 13.3394 34.0385 13.7418C33.073 12.7763 28.4063 13.3395 26.1937 13.7418C25.2281 14.2245 19.3546 14.3452 16.5385 14.3452C12.1937 14.3452 11.912 15.9544 12.3143 16.759ZM15.3316 17.9658C19.958 17.3624 30.4178 16.0348 35.2453 15.552C36.0499 21.7877 37.5384 34.621 37.0557 36.0693C36.0499 36.4716 33.1936 37.0348 29.8143 36.0693L29.2109 36.6727C28.4063 36.4716 26.9178 36.3107 27.4005 37.2762L26.7971 36.6727C26.5959 36.6727 26.1936 36.552 26.1936 36.0693C25.9925 36.0693 25.5902 36.19 25.5902 36.6727L24.9867 36.0693C24.9867 36.2704 24.866 36.6727 24.3833 36.6727C24.1821 36.6727 23.7798 36.7934 23.7798 37.2762C23.1764 36.6727 21.1246 35.9486 17.7453 37.8796C16.9408 35.8681 15.3316 29.0693 15.3316 17.9658ZM19.5557 34.2589C19.1534 33.2532 18.3488 30.3969 18.3488 27.0176C18.3488 25.2072 18.2281 21.4658 17.7453 20.9831C17.5442 20.3796 18.5902 19.1727 24.3833 19.1727H25.5902C25.5902 19.5641 25.9329 20.1078 27.285 19.248C27.0502 19.4599 27.4213 19.7762 30.4178 19.7762C31.0212 19.7762 32.2281 19.8969 32.2281 20.3796C32.2281 22.19 32.3488 26.052 32.8316 27.0176C33.0327 28.4256 33.3143 31.6038 32.8316 33.052C31.2224 33.052 27.6419 33.1727 26.1936 33.6555C25.1879 34.0578 22.4522 34.7417 19.5557 34.2589ZM27.4005 19.1727C27.3549 19.1955 27.315 19.2209 27.285 19.248C27.3227 19.224 27.3612 19.1989 27.4005 19.1727ZM21.9695 30.6383C21.9695 29.6727 21.5672 25.4084 21.366 23.3969C25.9789 21.684 29.3225 21.8786 30.4178 22.19C29.935 23.1555 30.2166 24.6038 30.4178 25.2072C30.9005 27.1383 31.0212 30.0348 31.0212 31.2417C31.0212 31.7245 29.8143 31.4429 29.2109 31.2417C27.7626 30.7589 26.5959 31.0406 26.1936 31.2417V30.6383H25.5902C23.1764 31.121 22.1706 30.8394 21.9695 30.6383ZM42.4867 5.29341C43.2913 4.48881 45.0212 3.48306 45.504 5.89686C45.7051 6.70146 45.866 8.43134 44.9005 8.9141C44.0959 9.3164 42.1247 9.51755 40.6764 7.10375C40.4752 6.70146 40.3143 5.77617 41.2798 5.29341L41.8833 5.89686L42.4867 5.29341ZM6.88328 11.3279C4.46948 12.2934 3.46374 11.3279 3.26259 10.7244C2.29707 9.27617 3.26259 8.1095 3.86603 7.7072V8.31065L4.46948 7.7072C5.435 6.74169 6.48098 7.3049 6.88328 7.7072C8.33152 9.63824 7.48671 10.9256 6.88328 11.3279ZM6.88328 45.121C7.88905 44.5176 10.142 43.9141 11.1074 46.3279C11.3086 46.9314 11.2281 48.259 9.29707 48.7417L8.69362 49.3452C8.29132 49.5463 7.24534 49.5865 6.27983 48.1383C6.07868 47.1325 5.91776 45.121 6.88328 45.121ZM49.1247 45.121C48.1591 47.5348 46.7109 47.3337 46.1074 46.9314V46.3279H45.504L44.2971 44.5176L45.504 42.1038C46.1074 42.1038 47.5557 42.2245 48.5212 42.7072C49.4867 43.19 49.3258 44.5176 49.1247 45.121Z" fill="currentColor"/>
</svg>